<?xml version="1.0" encoding="utf-8"?>
<svg viewBox="0 0 24 24" fill="none" xmlns="http://www.w3.org/2000/svg">
  <path d="M12 2C6.48 2 2 6.48 2 12C2 17.52 6.48 22 12 22C17.52 22 22 17.52 22 12C22 6.48 17.52 2 12 2ZM12.87 17.32V18.5H11.13V17.35C9.53 17.11 8.28 16.29 8.15 14.79H9.88C9.98 15.55 10.55 16.11 12 16.11C13.58 16.11 14.05 15.4 14.05 14.94C14.05 14.33 13.58 13.87 11.72 13.42C9.65 12.91 8.22 12.12 8.22 10.47C8.22 9.08 9.44 8.11 11.13 7.81V6.5H12.87V7.81C14.61 8.16 15.43 9.36 15.5 10.58H13.76C13.71 9.83 13.29 9.19 12 9.19C10.78 9.19 10.17 9.78 10.17 10.43C10.17 10.99 10.64 11.36 12.36 11.79C14.08 12.22 16 12.88 16 14.91C15.99 16.4 14.72 17.11 12.87 17.32Z" fill="#10B981"/>
</svg>